# xmcd
#
# Track frame offsets:
#	150
#	16605
#	27330
#	43235
#	54902
#	66610
#	77142
#	95397
#	104405
#	120270
#	128887
#	140285
#	155475
#	170492
#
# Disc length: 2445 seconds
#
# Revision: 0
# Processed by: cddbd v1.4PL0 Copyright (c) Steve Scherf et al.
# Submitted via: EasyCDDAExtractor 4.5.0.2
#
DISCID=b4098b0e
DTITLE=Jade Hurley - Country and Love Songs
DYEAR=2001
DGENRE=Country
TTITLE0=Always on My Mind
TTITLE1=Am I That Easy To Forget
TTITLE2=Australia For Me
TTITLE3=Suzie Darlin'
TTITLE4=Help Me Make It Through The Night
TTITLE5=Last Date
TTITLE6=To Know You Is To Love You
TTITLE7=I Love
TTITLE8=Amazing Grace
TTITLE9=Love Is Blue
TTITLE10=Today I Started Loving You Again
TTITLE11=The End
TTITLE12=Loving You
TTITLE13=Love Letters
EXTD=
EXTT0=
EXTT1=
EXTT2=
EXTT3=
EXTT4=
EXTT5=
EXTT6=
EXTT7=
EXTT8=
EXTT9=
EXTT10=
EXTT11=
EXTT12=
EXTT13=
PLAYORDER=
